<svg width="142" height="23" viewBox="0 0 142 23" fill="none" xmlns="http://www.w3.org/2000/svg">
<g clip-path="url(#clip0_21_2467)">
<path d="M1.1 10.5C1.6 7.90001 3.9 6.10001 7.1 6.10001C10.8 6.10001 13.7 7.70001 13.7 12.7V22H10.5L10.1 20C9 21.4 7.5 22.3 5.3 22.3C2.6 22.3 0.5 20.6 0.5 17.5C0.5 14.4 3.3 12.4 7.2 12.4H9.8V11.7C9.8 9.90001 8.5 9.40001 7 9.40001C5.9 9.40001 4.8 9.80001 4.3 11.2L1.1 10.5ZM6.2 19C8 19 9.8 17.8 9.8 15.8V15.5H7.3C5.6 15.4 4.6 16.1 4.6 17.5C4.6 18.2 5.2 19 6.2 19Z" fill="black"/>
<path d="M76.4999 10.5C76.9999 7.90001 79.2999 6.10001 82.4999 6.10001C86.1999 6.10001 89.0999 7.70001 89.0999 12.7V22H85.8999L85.4999 20C84.3999 21.4 82.8999 22.3 80.6999 22.3C77.9999 22.3 75.8999 20.6 75.8999 17.5C75.8999 14.4 78.6999 12.4 82.5999 12.4H85.1999V11.7C85.1999 9.90001 83.8999 9.40001 82.3999 9.40001C81.2999 9.40001 80.1999 9.80001 79.6999 11.2L76.4999 10.5ZM81.5999 19C83.3999 19 85.1999 17.8 85.1999 15.8V15.5H82.5999C80.8999 15.5 79.8999 16.1 79.8999 17.5C79.9999 18.2 80.5999 19 81.5999 19Z" fill="black"/>
<path d="M92.6001 22.1V6.30001H96.5001V8.90001C97.6001 7.00001 99.4001 6.10001 101.1 6.10001C101.8 6.10001 102.4 6.20001 103 6.40001L102.3 10C101.8 9.70001 101.3 9.50001 100.7 9.50001C98.4001 9.50001 96.5001 11.4 96.5001 16.4V22L92.6001 22.1Z" fill="black"/>
<path d="M111.3 6.1C112.9 6.1 114.4 6.9 115.1 7.8V0H119V22.1H115.1V20.5C114.6 21.3 113.2 22.4 111.3 22.4C106.6 22.4 104.2 19.1 104.2 14.3C104.2 9.5 106.6 6.1 111.3 6.1ZM111.9 19C113.9 19 115.5 17.3 115.5 14.2C115.5 11.1 113.9 9.4 111.9 9.4C109.9 9.4 108.3 11.1 108.3 14.2C108.3 17.3 109.9 19 111.9 19Z" fill="black"/>
<path d="M133 8.59999L130.7 10.7C130 9.69999 128.9 9.29999 128.1 9.29999C127.3 9.29999 126.6 9.79999 126.6 10.6C126.6 11.3 127.2 11.8 128.1 12.1C130.3 12.9 133.8 13.6 133.8 16.9C133.8 19.8 131.6 22.1 128.2 22.1C124.9 22.1 122.7 19.8 122 17.9L125.1 16.2C125.7 17.7 126.7 18.8 128.3 18.8C129.5 18.8 130.3 18.2 130.3 17.1C130.3 15.8 128.3 15.5 126.4 14.7C124.7 14 123.2 12.9 123.2 10.5C123.2 8.09999 125.2 5.89999 128.2 5.89999C130.2 5.99999 132.1 7.09999 133 8.59999Z" fill="black"/>
<path d="M52.4 6.29999L49.6 17.2L46.9 6.29999H43.3L40.7 17.2L38.5 10.9L38.2 11.6L37 15.7L39 22.1H42.4L45.1 11.9L47.8 22.1H51.3L56.3 6.29999H52.4Z" fill="black"/>
<path d="M71.1001 6.29999L68.3001 17.2L65.6001 6.29999H62.0001L59.4001 17.2L57.2001 10.9L56.9001 11.6L55.6001 15.7L57.7001 22.1H61.1001L63.8001 11.9L66.5001 22.1H69.9001L75.0001 6.29999H71.1001Z" fill="black"/>
<path d="M37.5999 6.29999L32.5999 22H29.1999L26.4999 11.9L23.7999 22.1H20.3999L15.3999 6.39999H19.2999L22.0999 17.2L24.7999 6.39999H28.3999L31.0999 17.2L33.8999 6.39999L37.5999 6.29999Z" fill="black"/>
<path d="M138.9 17C140.4 17 141.5 18.1 141.5 19.6C141.5 21.1 140.4 22.2 138.9 22.2C137.4 22.2 136.3 21.1 136.3 19.6C136.3 18.1 137.4 17 138.9 17Z" fill="black"/>
</g>
<defs>
<clipPath id="clip0_21_2467">
<rect width="141" height="22.3" fill="white" transform="translate(0.5)"/>
</clipPath>
</defs>
</svg>
