<svg width="13" height="13" viewBox="0 0 13 13" fill="none" xmlns="http://www.w3.org/2000/svg">
<path d="M4.89474 9.46049L5.45724 9.46049L5.45724 8.89799H4.89474V9.46049ZM4.89474 11.8289L4.33224 11.8289L4.33223 12.8124L5.17993 12.3138L4.89474 11.8289ZM9.49129 9.1251L9.26906 8.60835L9.23657 8.62233L9.20609 8.64026L9.49129 9.1251ZM1.3125 5.31576C1.3125 3.33734 2.91632 1.73352 4.89474 1.73352V0.608521C2.295 0.608521 0.1875 2.71602 0.1875 5.31576H1.3125ZM4.89474 8.89799C2.91632 8.89799 1.3125 7.29417 1.3125 5.31576H0.1875C0.1875 7.91549 2.295 10.023 4.89474 10.023V8.89799ZM5.45724 11.829L5.45724 9.46049L4.33224 9.46049L4.33224 11.8289L5.45724 11.829ZM9.20609 8.64026L4.60954 11.3441L5.17993 12.3138L9.77649 9.60993L9.20609 8.64026ZM11.4375 5.31576C11.4375 6.79113 10.5455 8.05944 9.26906 8.60835L9.71351 9.64184C11.3881 8.92168 12.5625 7.2565 12.5625 5.31576H11.4375ZM7.85526 1.73352C9.83368 1.73352 11.4375 3.33734 11.4375 5.31576H12.5625C12.5625 2.71602 10.455 0.608521 7.85526 0.608521V1.73352ZM4.89474 1.73352H7.85526V0.608521H4.89474V1.73352Z" fill="#8698A9"/>
</svg>
